<?xml version="1.0" encoding="UTF-8" standalone="no"?>
<!-- Created with Inkscape (http://www.inkscape.org/) -->

<svg
   width="53.571281"
   height="56.650013"
   viewBox="0 0 53.571281 56.650013"
   version="1.1"
   id="svg1"
   xml:space="preserve"
   xmlns:inkscape="http://www.inkscape.org/namespaces/inkscape"
   xmlns:sodipodi="http://sodipodi.sourceforge.net/DTD/sodipodi-0.dtd"
   xmlns="http://www.w3.org/2000/svg"
   xmlns:svg="http://www.w3.org/2000/svg"><sodipodi:namedview
     id="namedview1"
     pagecolor="#505050"
     bordercolor="#eeeeee"
     borderopacity="1"
     inkscape:showpageshadow="0"
     inkscape:pageopacity="0"
     inkscape:pagecheckerboard="0"
     inkscape:deskcolor="#505050"
     inkscape:document-units="px" /><defs
     id="defs1" /><g
     inkscape:label="Layer 1"
     inkscape:groupmode="layer"
     id="layer1"
     transform="translate(-47.46096,-47.717625)"><g
       id="g8"
       transform="translate(-709.35675,12.716748)"><path
         d="m 781.28657,35.000876 c -0.76186,7.5e-4 -1.50395,0.05277 -2.22178,0.170954 -0.84289,1.889628 -1.91989,4.043376 -1.91989,4.043376 l -4.0959,-1.682405 c -2.0242,0.951692 -1.35714,3.755493 -2.50867,4.807231 -3.48762,2.842569 -10.48487,8.612247 -11.22083,10.596668 -1.56786,4.227337 -2.37986,8.735303 -2.50179,13.124841 1.81246,0.967949 3.9202,2.594079 5.87873,4.343265 1.79283,1.791834 4.39703,3.915569 5.10587,6.217384 l 0.26212,0.89642 -0.83263,0.42319 c -1.43392,0.6578 -1.17806,2.11474 -1.41003,3.234 l -2.20128,-0.47146 c 0.15233,-1.62601 0.45809,-3.12145 1.65151,-4.14192 -1.09587,-1.7068 -2.69649,-3.242014 -4.07488,-4.478335 -1.43242,-1.279343 -3.03266,-2.502661 -4.36865,-3.369939 0.20934,5.812324 0.15094,10.209734 2.6581,14.332524 l 3.99498,0.63705 -0.0692,3.50825 5.28621,-0.40293 -0.66281,3.78675 c 11.53248,4.78723 30.99314,-7.20634 36.06198,-20.287288 1.08613,-2.803175 6.02317,-5.657875 6.2399,-8.468554 0.34191,-4.436059 -1.04673,-8.761566 -3.46748,-12.598347 -1.72517,1.653017 -3.72548,2.142869 -5.8227,1.225068 l 2.53305,2.983885 -1.71617,1.456676 -3.42659,-4.035998 -0.15507,-2.306821 c -0.71996,-0.660681 -1.39941,-1.420909 -2.00669,-2.243541 l -4.24571,1.246829 -0.63442,-2.159752 3.62955,-1.065745 c -0.47297,-0.897541 -0.83914,-1.8316 -1.04924,-2.773037 -0.3369,-1.5087 -0.26462,-3.099438 0.58778,-4.417801 0.008,-0.0135 0.0181,-0.02626 0.027,-0.03964 -4.50434,-0.608782 -9.19052,-2.095222 -13.30454,-2.09072 z m 15.16791,3.352305 c -0.43457,0.672313 -0.53188,1.58261 -0.28113,2.705382 0.25074,1.122771 0.85815,2.395487 1.66327,3.557901 0.80537,1.162164 1.80658,2.217279 2.77829,2.948493 2.89385,1.61525 5.22268,0.970826 4.88777,-2.121985 -0.23636,-2.018061 -2.19352,-3.710721 -2.93386,-4.4712 -1.58261,-1.625004 -4.76434,-4.355771 -6.11434,-2.618716 z m -4.52797,0.533499 -1.18431,2.661485 -3.13945,1.161789 -2.29356,-1.295601 z m -13.04506,3.614552 3.79126,1.384642 3.48586,5.785685 4.00812,1.769072 -0.90918,2.059455 -4.65966,-2.057204 z m -5.4888,3.834279 c 1.20368,-0.0012 2.4874,0.352915 3.22862,1.477561 0.76486,0.637045 2.04645,1.063244 3.48237,1.602744 l -0.79186,2.107478 c -0.72534,-0.272627 -1.55973,-0.518365 -2.37148,-0.874906 -0.13106,0.440204 -0.32365,0.861649 -0.54501,1.242451 a 8.0950066,8.0950066 0 0 1 -0.37141,0.578394 c 1.57698,0.842516 3.00414,1.49857 3.76674,1.563976 L 779.59803,56.276 c -1.67252,-0.143567 -3.40033,-1.069997 -5.15676,-2.081592 a 8.7383051,8.7383051 0 0 1 -0.65281,0.50461 c -0.70258,0.488101 -1.5686,0.953317 -2.50666,1.313109 0.36579,1.865866 0.39368,3.765248 0.36767,5.152766 l -2.25067,-0.04215 c 0.0238,-1.256208 -0.0292,-2.960749 -0.30639,-4.516096 -0.7491,0.115679 -1.50645,0.132562 -2.24405,-0.04789 -0.0113,-0.0025 -0.0221,-0.0057 -0.0333,-0.0087 0.0103,1.695037 -0.24786,3.508879 -1.49444,5.299209 l -1.84709,-1.286268 c 1.35938,-1.952406 1.12302,-3.854038 0.97595,-6.155856 -0.19584,-0.625916 -0.18446,-1.288598 -0.0288,-1.87437 0.21035,-0.791617 0.63779,-1.48644 1.14891,-2.119108 1.02247,-1.265338 2.40462,-2.296316 3.60254,-2.937614 1.47507,-0.632794 2.79981,-1.136777 4.22072,-1.14053 z m -0.0831,2.252546 c -0.08,0.0015 -0.16358,0.0059 -0.25062,0.01276 -0.93818,0.07666 -2.08097,0.462089 -2.82481,0.860399 -0.92231,0.493478 -2.15725,1.431164 -2.91385,2.367348 -0.37805,0.468092 -0.63092,0.932058 -0.72409,1.282346 -0.14382,0.635294 0.26062,1.128524 0.78661,1.26146 0.37768,0.09229 0.93294,0.09217 1.55022,-0.02051 1.23433,-0.225354 2.69438,-0.892289 3.57078,-1.501196 0.65956,-0.458463 1.48357,-1.296852 1.94541,-2.091221 0.48147,-1.59424 0.0615,-2.193517 -1.13953,-2.171382 z m 32.5092,4.708435 1.58099,7.817128 -6.85093,5.094489 4.12816,-7.114552 z m -7.6673,2.594954 0.39794,2.215654 -8.2701,1.486064 -1.20681,3.149712 -3.15771,1.492443 2.71689,-6.633079 z m -1.45443,8.107513 2.03845,0.954193 c -0.90492,1.933396 -1.22982,2.999141 -1.12227,4.171935 0.7526,0.03602 1.51745,0.122057 2.27881,0.241862 l -0.34967,2.223533 c -2.5847,-0.406439 -5.0232,-0.203845 -6.24202,0.649304 -0.6094,0.426447 -0.9837,0.954567 -1.13652,1.862115 -0.15295,0.907169 -0.0262,2.225529 0.60941,4.001479 -1.84624,0.66406 -3.56228,1.16854 -5.46304,1.80533 l -0.71484,-2.13448 3.43348,-1.15017 c -0.20323,-1.06724 -0.23136,-2.02718 -0.0848,-2.89634 0.2306,-1.369008 0.94419,-2.4854 1.91763,-3.223117 -0.32114,-0.673188 -0.6503,-1.386894 -0.88691,-2.173885 -0.34916,-1.161414 -0.0462,-3.456603 -0.07,-3.458854 0,0 1.96666,1.949154 2.22578,2.810929 0.17171,0.57114 0.44921,1.177672 0.75161,1.819344 0.47897,-0.144817 0.97995,-0.245488 1.49631,-0.308893 -0.0863,-1.604494 0.37918,-3.18798 1.31849,-5.19441 z m -18.18544,0.493478 -2.73277,5.83821 -0.18633,8.135903 -2.17351,-8.508451 c 0,0 4.59589,-5.465412 5.09261,-5.465412 z m 4.82399,17.489373 a 10.626182,10.626182 0 0 1 0.9617,0.0401 c 1.70429,0.14657 3.41283,0.64155 5.09361,1.14203 l -0.64242,2.1575 c -1.6629,-0.49523 -3.25276,-0.93718 -4.64391,-1.05674 -0.68532,-0.0588 -1.31023,-0.045 -1.88837,0.0636 l -1.86062,-1.76933 c 0.85378,-0.36478 1.75332,-0.53499 2.65911,-0.57026 a 9.4693943,9.4693943 0 0 1 0.32116,-0.007 z m -4.87101,1.88524 1.74869,1.66327 c -1.36213,2.13062 -1.81559,3.34593 -3.89931,4.66717 0.20509,-0.69732 0.37542,-2.03244 0.73534,-3.37456 0.27213,-1.01422 0.66256,-2.10011 1.41566,-2.95575 z"
         fill="#ffffff"
         fill-opacity="1"
         id="path2-1"
         style="fill:#c97800;fill-opacity:1;stroke-width:0.125058"
         inkscape:export-filename="path2-1.svg"
         inkscape:export-xdpi="96"
         inkscape:export-ydpi="96" /><text
         xml:space="preserve"
         style="font-size:56.3086px;fill:#8e084b;fill-opacity:1;stroke:#8e084b;stroke-width:0.825624;stroke-dasharray:none;stroke-opacity:1"
         x="816.07806"
         y="82.660912"
         id="text3-3-3"><tspan
           sodipodi:role="line"
           id="tspan3-5-9"
           x="816.07806"
           y="82.660912"
           style="font-size:56.3086px;fill:#ffffff;fill-opacity:1;stroke:none;stroke-width:0.825624">600</tspan></text></g></g></svg>
