<?xml version="1.0" encoding="UTF-8" standalone="no"?>
<!-- Created with Inkscape (http://www.inkscape.org/) -->

<svg
   width="51.644409"
   height="51.101929"
   viewBox="0 0 51.644409 51.101929"
   version="1.1"
   id="svg1"
   xml:space="preserve"
   xmlns:inkscape="http://www.inkscape.org/namespaces/inkscape"
   xmlns:sodipodi="http://sodipodi.sourceforge.net/DTD/sodipodi-0.dtd"
   xmlns="http://www.w3.org/2000/svg"
   xmlns:svg="http://www.w3.org/2000/svg"><sodipodi:namedview
     id="namedview1"
     pagecolor="#505050"
     bordercolor="#eeeeee"
     borderopacity="1"
     inkscape:showpageshadow="0"
     inkscape:pageopacity="0"
     inkscape:pagecheckerboard="0"
     inkscape:deskcolor="#505050"
     inkscape:document-units="px" /><defs
     id="defs1" /><g
     inkscape:label="Layer 1"
     inkscape:groupmode="layer"
     id="layer1"
     transform="translate(-499.24823,-323.55014)"><path
       d="m 525.07044,323.55013 c -1.74419,0 -3.51258,0.40469 -5.22715,1.11101 -0.23066,0.70793 -0.42064,1.60141 -0.52914,2.57723 -0.14213,1.27917 -0.1877,2.68052 -0.20288,3.99474 3.67413,-0.40187 8.24423,-0.40187 11.91836,0 -0.0152,-1.31422 -0.0608,-2.71568 -0.20289,-3.99485 -0.1085,-0.9756 -0.29837,-1.86919 -0.52914,-2.57712 -1.71457,-0.70632 -3.48296,-1.11101 -5.22716,-1.11101 z m 10.91087,2.09746 c 1.01065,0.76533 1.96455,1.61421 2.85151,2.52081 0.166,-0.7215 0.50885,-1.37747 0.97973,-1.91985 z m -18.4477,0.16166 c -3.76212,2.1938 -7.05738,5.7193 -8.95662,9.36695 -3.58907,6.89345 -4.30623,17.02921 -0.0575,23.30509 3.18264,4.7003 10.50508,6.51458 16.55095,6.51458 6.04598,0 13.36842,-1.81407 16.55085,-6.51468 4.24895,-6.27578 3.53156,-16.41154 -0.0575,-23.3051 -1.89913,-3.64765 -5.19439,-7.17293 -8.9564,-9.36684 0.0627,0.39601 0.11468,0.80157 0.16036,1.21343 0.16513,1.48575 0.20744,3.05928 0.21851,4.47733 2.02943,0.3422 3.58484,0.83835 4.23582,1.48933 3.47189,3.4719 8.19552,14.61397 1.73594,24.30326 -4.08533,6.1279 -23.68982,6.1279 -27.77515,0 -6.45957,-9.68929 -1.73595,-20.83136 1.73595,-24.30326 0.65098,-0.65098 2.20627,-1.14713 4.23571,-1.48933 0.0112,-1.41805 0.0535,-2.99158 0.21862,-4.47733 0.0456,-0.41186 0.0977,-0.81742 0.16036,-1.21343 z m -13.29453,0.4533 c -0.95878,0 -1.73595,0.77716 -1.73595,1.73595 a 1.7359473,1.7359473 0 0 0 0.75948,1.43508 v 7.40739 l 1.95294,-1.4647 v -5.94454 a 1.7359473,1.7359473 0 0 0 0.75947,-1.43323 c 0,-0.95879 -0.77715,-1.73595 -1.73594,-1.73595 z m 38.9297,0.39926 c -1.38984,0 -2.49542,1.10559 -2.49542,2.49543 0,1.38984 1.10558,2.49542 2.49542,2.49542 1.38984,0 2.49542,-1.10558 2.49542,-2.49542 0,-1.38984 -1.10558,-2.49543 -2.49542,-2.49543 z m 2.74193,5.98957 c -0.75731,0.5964 -1.70969,0.95422 -2.74172,0.95422 -0.0808,0 -0.16057,-0.003 -0.2402,-0.007 a 23.497131,23.497131 0 0 1 0.25822,0.47414 l 3.23884,2.42924 z m -25.9114,0.27124 c -1.87233,0.01 -4.04215,0.40762 -5.77561,1.74896 -2.8897,2.2359 -4.66905,12.45142 -3.63355,15.92331 1.79931,-6.70152 3.47114,-13.45576 11.70896,-17.4977 a 14.478343,14.478343 0 0 0 -2.2998,-0.17468 z m -14.65302,4.79664 -3.69486,2.77133 -1.57103,7.85603 4.1424,4.97067 c -1.18771,-5.0476 -0.62667,-10.71112 1.12349,-15.59792 z m 39.44831,0 c 1.75005,4.88691 2.3112,10.55043 1.12349,15.59792 l 4.1424,-4.97078 -1.57103,-7.85603 z m -35.92868,24.12261 c -0.38874,0.12694 -0.78682,0.36954 -1.11556,0.69818 -0.44874,0.44874 -0.72476,1.02312 -0.77727,1.53024 0.0228,0.0395 0.0654,0.12553 0.18769,0.23456 0.26615,0.2374 0.72617,0.56093 1.31574,0.90682 1.17904,0.69221 2.88059,1.49259 4.7961,2.23753 2.29764,0.89369 4.92033,1.70383 7.34935,2.21116 v -2.99559 c -4.28237,-0.55551 -8.66856,-1.98821 -11.75616,-4.8229 z m 32.40905,0 c -3.0876,2.83448 -7.4738,4.26718 -11.75616,4.82268 v 2.99559 c 2.42892,-0.50733 5.05161,-1.31747 7.34935,-2.21116 1.91551,-0.74482 3.61706,-1.54532 4.7961,-2.23742 0.58957,-0.34611 1.0496,-0.66942 1.31573,-0.90703 0.12229,-0.10893 0.16492,-0.19497 0.18771,-0.23435 -0.0523,-0.50723 -0.32842,-1.08171 -0.77717,-1.53035 -0.32874,-0.32874 -0.72692,-0.57112 -1.11556,-0.69818 z m -35.5905,3.7618 -6.43624,4.29083 v 4.75758 h 4.01438 v -1.95294 h 1.95294 v 1.95294 h 39.7098 v -1.95294 h 1.95293 v 1.95294 h 4.01438 v -4.75758 l -6.43624,-4.29083 c -0.0583,0.0529 -0.11718,0.10524 -0.17609,0.15808 -0.42552,0.37941 -0.9691,0.74754 -1.62723,1.13401 -1.3164,0.77249 -3.08673,1.59957 -5.0771,2.37358 -3.98075,1.54803 -8.78954,2.88731 -12.50556,2.88731 -3.71601,0 -8.5248,-1.33917 -12.50554,-2.8871 -1.99037,-0.77411 -3.76072,-1.60108 -5.0771,-2.37368 -0.65815,-0.38625 -1.20171,-0.7546 -1.62724,-1.13412 -0.0589,-0.0528 -0.11783,-0.10524 -0.17609,-0.15819 z m 16.89055,1.25661 v 3.14554 c 0.89358,0.12607 1.73725,0.19789 2.49542,0.19789 0.75818,0 1.60185,-0.0718 2.49543,-0.19789 v -3.14554 c -0.84845,0.0602 -1.6842,0.0885 -2.49543,0.0885 -0.81122,0 -1.64697,-0.0282 -2.49542,-0.0885 z"
       fill="#ffffff"
       fill-opacity="1"
       id="path2-2"
       style="stroke-width:0.108497"
       inkscape:export-filename="USER-2.svg"
       inkscape:export-xdpi="96"
       inkscape:export-ydpi="96" /></g></svg>
